<?xml version="1.0" encoding="utf-8"?>
<!-- Generator: Adobe Illustrator 16.0.0, SVG Export Plug-In . SVG Version: 6.00 Build 0)  -->
<!DOCTYPE svg PUBLIC "-//W3C//DTD SVG 1.1//EN" "http://www.w3.org/Graphics/SVG/1.1/DTD/svg11.dtd">
<svg version="1.1"
	 id="Layer_1" xmlns:rdf="http://www.w3.org/1999/02/22-rdf-syntax-ns#" xmlns:svg="http://www.w3.org/2000/svg" xmlns:cc="http://creativecommons.org/ns#" xmlns:dc="http://purl.org/dc/elements/1.1/"
	 xmlns="http://www.w3.org/2000/svg" xmlns:xlink="http://www.w3.org/1999/xlink" x="0px" y="0px" width="86.0004883px"
	 height="24.0004883px" viewBox="0 0 86.0004883 24.0004883" enable-background="new 0 0 86.0004883 24.0004883"
	 xml:space="preserve">
<path id="path2" fill="#242426" d="M6.5595703,17.3286133h1.0576172L14.1523438,0h-0.9853516L7.1123047,16.2612305L1.0332031,0H0
	L6.5595703,17.3286133L6.5595703,17.3286133z M45.2504883,11.1625977V23.612793h0.9130859v-7.5478516
	c0-0.7275391,0.0810547-1.3154297,0.2412109-1.7597656c0.1591797-0.4443359,0.4775391-0.8857422,0.9589844-1.3222656
	c0.7304688-0.6645508,1.5429688-1.0859375,2.4453125-1.262207l0.0039063-0.0009766l0.0107422-0.0019531l0.0136719-0.0024414
	l0.0146484-0.0029297l0.0136719-0.0029297l0.0039063-0.0004883l0.0087891-0.0019531l0.015625-0.0029297l0.0146484-0.0024414
	l0.0136719-0.0024414l0.0058594-0.0009766l0.0097656-0.0014648l0.0136719-0.0024414l0.1142578-0.0175781l0.0136719-0.0019531
	l0.015625-0.0019531l0.0078125-0.0009766l0.0068359-0.0009766l0.0292969-0.0039063l0.0136719-0.0014648l0.0087891-0.0009766
	l0.0058594-0.0009766l0.0136719-0.0014648l0.0166016-0.0019531l0.0136719-0.0019531l0.0097656-0.0004883l0.0058594-0.0009766
	l0.0136719-0.0019531l0.0283203-0.0029297l0.0097656-0.0009766l0.0048828-0.0004883l0.015625-0.0014648l0.0146484-0.0014648
	l0.0146484-0.0014648l0.0117188-0.0009766h0.0029297l0.0136719-0.0014648l0.015625-0.0009766l0.0136719-0.0014648
	l0.0126953-0.0004883l0.0039063-0.0004883l0.0136719-0.0009766l0.015625-0.0014648l0.0136719-0.0004883l0.0126953-0.0009766
	l0.0019531-0.0004883l0.0146484-0.0004883l0.015625-0.0009766l0.015625-0.0009766l0.0136719-0.0009766h0.0009766
	l0.0146484-0.0004883l0.015625-0.0009766l0.0136719-0.0004883l0.015625-0.0009766l0,0l0.015625-0.0004883l0.0146484-0.0004883
	l0.015625-0.0009766h0.0146484l0.0009766-0.0004883h0.0126953l0.015625-0.0004883l0.015625-0.0004883l0.0146484-0.0004883h0.0019531
	h0.0136719L50.7319336,11.625h0.0126953l0.0810547-0.0009766c1.1689453,0,2.0136719,0.3227539,2.5341797,0.9702148
	c0.5185547,0.6474609,0.78125,1.6259766,0.78125,2.9375v8.0810547h0.9111328v-8.2998047
	c0-1.4248047-0.3310547-2.5361328-0.9970703-3.3374023c-0.6640625-0.800293-1.6923828-1.2006836-3.0869141-1.2006836
	c-0.0742188,0-0.1484375,0.0009766-0.2236328,0.003418V9.8041992L56.6088867,0h-1.0097656l-5.3105469,8.9550781L44.9311523,0
	h-1.0576172l5.9355469,9.8291016v1.0537109c-0.5136719,0.0981445-1.0048828,0.2651367-1.4716797,0.4985352
	c-0.8085938,0.4042969-1.5332031,1.0429688-2.1738281,1.9160156v-2.1347656H45.2504883L45.2504883,11.1625977z
	 M58.440918,11.1625977V23.612793h0.9140625V11.1625977H58.440918L58.440918,11.1625977z M58.4174805,6.284668v2.2333984h0.9609375
	V6.284668H58.4174805L58.4174805,6.284668z M72.9282227,19.534668h-0.8886719
	c-0.2089844,1.1660156-0.6552734,2.0644531-1.3447266,2.6933594c-0.6894531,0.6318359-1.6171875,0.9482422-2.7871094,0.9482422
	c-0.7998047,0-1.4902344-0.1416016-2.0673828-0.4257813c-0.5742188-0.2822266-1.0517578-0.6796875-1.4277344-1.1884766
	c-0.3769531-0.5107422-0.6572266-1.1171875-0.8417969-1.8193359c-0.1855469-0.7050781-0.2773438-1.4697266-0.2773438-2.2939453
	c0-0.8417969,0.0917969-1.6230469,0.2773438-2.3427734c0.1845703-0.7197266,0.46875-1.3378906,0.8544922-1.8564453
	c0.3828125-0.5166016,0.8681641-0.921875,1.4521484-1.2128906c0.5849609-0.2915039,1.2783203-0.4370117,2.078125-0.4370117
	c1.1376953,0,2.0185547,0.2988281,2.6435547,0.8979492c0.6240234,0.5986328,1.0478516,1.4326172,1.2734375,2.4990234
	l0.8398438-0.1933594c-0.2714844-1.3115234-0.8046875-2.3105469-1.5966797-2.9970703
	c-0.7939453-0.6879883-1.8378906-1.03125-3.1357422-1.03125c-0.8642578,0-1.6455078,0.1533203-2.34375,0.4609375
	c-0.6962891,0.3066406-1.2890625,0.7475586-1.7773438,1.3212891c-0.4882813,0.5751953-0.8652344,1.2753906-1.1298828,2.0996094
	c-0.2636719,0.8261719-0.3964844,1.7636719-0.3964844,2.8164063c0,2.0224609,0.4931641,3.6162109,1.4785156,4.7802734
	c0.9853516,1.1650391,2.34375,1.7470703,4.0732422,1.7470703c1.4404297,0,2.5898438-0.4042969,3.4472656-1.2128906
	C72.1899414,21.9780273,72.7202148,20.894043,72.9282227,19.534668L72.9282227,19.534668z M86.0004883,17.6176758v-0.6308594
	c0-0.890625-0.0976563-1.7089844-0.2890625-2.4619141s-0.4912109-1.4082031-0.9003906-1.9677734
	c-0.4091797-0.5576172-0.9375-0.9941406-1.5869141-1.3095703c-0.6474609-0.3154297-1.4199219-0.4726563-2.3173828-0.4726563
	c-0.8173828,0-1.5664063,0.1411133-2.2480469,0.4243164c-0.6806641,0.2832031-1.2646484,0.7036133-1.7529297,1.262207
	c-0.4892578,0.5585938-0.8691406,1.2539063-1.1396484,2.0869141c-0.2744141,0.8339844-0.4101563,1.8085938-0.4101563,2.9248047
	c0,2.0693359,0.4804688,3.6748047,1.4414063,4.8173828c0.9609375,1.140625,2.3388672,1.7099609,4.1337891,1.7099609
	c0.71875,0,1.3574219-0.0888672,1.9091797-0.2666016s1.0292969-0.4248047,1.4287109-0.7412109
	c0.4013672-0.3144531,0.7216797-0.6865234,0.9619141-1.1152344c0.2402344-0.4277344,0.4082031-0.8857422,0.5039063-1.3710938
	h-0.8642578c-0.1923828,0.7919922-0.6054688,1.4365234-1.2363281,1.9306641
	c-0.6337891,0.4921875-1.5107422,0.7392578-2.6308594,0.7392578c-0.8173828,0-1.5224609-0.1376953-2.1152344-0.4130859
	c-0.5917969-0.2753906-1.0849609-0.6552734-1.4765625-1.140625c-0.3925781-0.4863281-0.6816406-1.0683594-0.8652344-1.7480469
	c-0.1845703-0.6787109-0.2763672-1.4316406-0.2763672-2.2568359H86.0004883L86.0004883,17.6176758z M80.8823242,11.5756836
	c0.7675781,0,1.4179688,0.1289063,1.9453125,0.3876953c0.5302734,0.2592773,0.9619141,0.6191406,1.2988281,1.0800781
	c0.3359375,0.4609375,0.5810547,1.0146484,0.7314453,1.6630859c0.1533203,0.6464844,0.2294922,1.3505859,0.2294922,2.1103516
	h-8.8173828c0.0957031-1.7304688,0.5507813-3.0371094,1.3691406-3.9189453
	C78.4555664,12.0166016,79.5366211,11.5756836,80.8823242,11.5756836L80.8823242,11.5756836z M16.6513672,0v17.3286133h10.644043
	l0.2636719-0.8984375h-9.9472656V8.8339844h9.1547852V7.9360352h-9.1547852V0.8974609h9.6352539V0H16.6513672L16.6513672,0z
	 M41.8320313,4.659668c0-0.6958008-0.0961914-1.3305664-0.2885742-1.9057617
	c-0.1923828-0.5737305-0.5092773-1.0634766-0.9492188-1.4677734c-0.440918-0.4042969-1.0170898-0.7197266-1.7294922-0.9462891
	C38.1508789,0.112793,37.2739258,0,36.2333984,0h-5.6464844v17.3286133h0.9370117V9.5131836h4.78125
	c0.2402344,0,0.4804688-0.0078125,0.7211914-0.0239258c0.2402344-0.0161133,0.4726563-0.0405273,0.6962891-0.0727539
	l3.5805664,7.9121094h1.0810547l-3.7241211-8.1308594c0.9609375-0.2915039,1.7294922-0.8051758,2.3061523-1.5410156
	C41.543457,6.9204102,41.8320313,5.921875,41.8320313,4.659668L41.8320313,4.659668z M31.5239258,8.6396484v-7.765625h4.5888672
	c1.7143555,0,2.9316406,0.3071289,3.6523438,0.921875s1.0820313,1.5776367,1.0820313,2.8876953
	c0,1.3110352-0.3535156,2.2973633-1.0581055,2.9614258c-0.7050781,0.6625977-1.8823242,0.9946289-3.5322266,0.9946289H31.5239258z"
	/>
</svg>
