<?xml version="1.0" standalone="no"?>
<!DOCTYPE svg PUBLIC "-//W3C//DTD SVG 20010904//EN"
 "http://www.w3.org/TR/2001/REC-SVG-20010904/DTD/svg10.dtd">
<svg version="1.0" xmlns="http://www.w3.org/2000/svg"
 width="300.000000pt" height="300.000000pt" viewBox="0 0 300.000000 300.000000"
 preserveAspectRatio="xMidYMid meet">
<metadata>
Created by potrace 1.14, written by Peter Selinger 2001-2017
</metadata>
<g transform="translate(0.000000,300.000000) scale(0.100000,-0.100000)"
fill="#000000" stroke="none">
<path d="M211 2633 c5 -15 204 -536 442 -1158 l433 -1130 75 -3 74 -3 115 303
115 302 3 -302 2 -302 65 0 65 0 1 483 0 482 92 240 92 240 75 50 c128 86 296
126 442 106 155 -22 247 -78 306 -189 65 -121 65 -124 69 -799 l4 -613 60 0
60 0 -4 638 c-3 574 -5 643 -21 697 -59 199 -160 307 -341 361 -87 26 -293 24
-395 -4 -61 -16 -136 -45 -181 -70 -5 -2 158 434 246 661 l15 37 -68 0 -68 0
-160 -425 c-115 -307 -168 -436 -191 -466 l-33 -42 0 142 0 141 -65 0 -65 0 0
-357 0 -357 -152 -404 c-84 -223 -154 -400 -155 -396 -2 5 -187 493 -411 1084
l-407 1075 -72 3 -72 3 10 -28z"/>
</g>
</svg>
